<mxfile host="Electron" agent="Mozilla/5.0 (Windows NT 10.0; Win64; x64) AppleWebKit/537.36 (KHTML, like Gecko) draw.io/27.0.9 Chrome/134.0.6998.205 Electron/35.4.0 Safari/537.36" version="27.0.9">
  <diagram name="Page-1" id="D7QICBaOenknfVmRmUUC">
    <mxGraphModel dx="1684" dy="1094" grid="1" gridSize="10" guides="1" tooltips="1" connect="1" arrows="1" fold="1" page="0" pageScale="1" pageWidth="850" pageHeight="1100" math="0" shadow="0">
      <root>
        <mxCell id="0" />
        <mxCell id="1" parent="0" />
        <mxCell id="4Uusxk8nQV4cGoE9MiT4-2" value="" style="whiteSpace=wrap;html=1;rounded=1;arcSize=5;shadow=0;labelBackgroundColor=none;fillColor=#09555B;strokeColor=#BAC8D3;fontColor=#EEEEEE;fontSize=7;" parent="1" vertex="1">
          <mxGeometry x="10" y="-50" width="370" height="290" as="geometry" />
        </mxCell>
        <mxCell id="4Uusxk8nQV4cGoE9MiT4-13" value="" style="edgeStyle=orthogonalEdgeStyle;rounded=0;orthogonalLoop=1;jettySize=auto;html=1;fontSize=7;" parent="1" source="CoY0uKXqRpmQlgdIEU-Q-17" target="CoY0uKXqRpmQlgdIEU-Q-20" edge="1">
          <mxGeometry relative="1" as="geometry">
            <Array as="points">
              <mxPoint x="-20" y="-325" />
              <mxPoint x="-20" y="-325" />
            </Array>
          </mxGeometry>
        </mxCell>
        <mxCell id="CoY0uKXqRpmQlgdIEU-Q-17" value="" style="rounded=1;whiteSpace=wrap;html=1;strokeColor=#BAC8D3;arcSize=5;shadow=1;labelBackgroundColor=none;fillColor=#09555B;fontColor=#EEEEEE;fontSize=7;" parent="1" vertex="1">
          <mxGeometry x="-630" y="-490" width="530" height="330" as="geometry" />
        </mxCell>
        <mxCell id="CoY0uKXqRpmQlgdIEU-Q-20" value="" style="whiteSpace=wrap;html=1;rounded=1;arcSize=5;shadow=0;labelBackgroundColor=none;fillColor=#09555B;strokeColor=#BAC8D3;fontColor=#EEEEEE;fontSize=7;" parent="1" vertex="1">
          <mxGeometry x="10" y="-490" width="370" height="290" as="geometry" />
        </mxCell>
        <mxCell id="CoY0uKXqRpmQlgdIEU-Q-24" value="&lt;h1 style=&quot;text-align: center; margin-top: 0px;&quot;&gt;Main Thread&lt;/h1&gt;&lt;p&gt;1. Define separate 2D arrays (dispBuffLn) for every layer, and a top layer display buffer (dispBuff) 2D array.&lt;/p&gt;&lt;p&gt;2. Define the Behavior Variables, as struct BehaviorState, and make them accessible globally.&lt;/p&gt;&lt;p&gt;3. Start the Wave Reader Thread&lt;/p&gt;&lt;p&gt;4. start an infinite while loop that will:&amp;nbsp;&lt;/p&gt;&lt;p&gt;&lt;span style=&quot;white-space: pre;&quot;&gt;&#x9;&lt;/span&gt;make a small delay.&lt;br&gt;&lt;/p&gt;&lt;p&gt;&lt;span style=&quot;white-space: pre;&quot;&gt;&#x9;&lt;/span&gt;check all the control panel inputs sequentially, update the Behavior Variables.&lt;br&gt;&lt;/p&gt;&lt;p&gt;&lt;span style=&quot;white-space: pre;&quot;&gt;&#x9;&lt;/span&gt;execute&amp;nbsp;all layer&#39;s make_ui(dispBuffLn), this will re-evaluate the 2D arrays.&lt;br&gt;&lt;/p&gt;&lt;p&gt;&lt;span style=&quot;white-space: pre;&quot;&gt;&#x9;&lt;/span&gt;call synchronize_layers().&lt;br&gt;&lt;/p&gt;&lt;p&gt;&lt;span style=&quot;white-space: pre;&quot;&gt;&#x9;&lt;/span&gt;check for all pixels in display_buffer, update_ui(pixel) for those pixels that are changed.&lt;br&gt;&lt;/p&gt;" style="text;html=1;whiteSpace=wrap;overflow=hidden;rounded=0;align=left;labelBackgroundColor=none;fontColor=#EEEEEE;fontSize=10;" parent="1" vertex="1">
          <mxGeometry x="-592" y="-476" width="450" height="291" as="geometry" />
        </mxCell>
        <mxCell id="CoY0uKXqRpmQlgdIEU-Q-33" value="" style="rounded=0;whiteSpace=wrap;html=1;labelBackgroundColor=none;fillColor=#09555B;strokeColor=#BAC8D3;fontColor=#EEEEEE;fontSize=7;" parent="1" vertex="1">
          <mxGeometry x="-1080" y="-480" width="260" height="310" as="geometry" />
        </mxCell>
        <mxCell id="CoY0uKXqRpmQlgdIEU-Q-34" value="&lt;h1 style=&quot;margin-top: 0px;&quot;&gt;BehaviorState Variables&lt;/h1&gt;&lt;h1 style=&quot;margin-top: 0px;&quot;&gt;&lt;p style=&quot;font-weight: 400;&quot;&gt;1. v_div&lt;/p&gt;&lt;p style=&quot;font-weight: 400;&quot;&gt;2. v_pos&lt;/p&gt;&lt;p style=&quot;font-weight: 400;&quot;&gt;3. t_div&lt;/p&gt;&lt;p style=&quot;font-weight: 400;&quot;&gt;4. t_pos&lt;/p&gt;&lt;/h1&gt;" style="text;html=1;whiteSpace=wrap;overflow=hidden;rounded=0;labelBackgroundColor=none;fontColor=#EEEEEE;fontSize=7;" parent="1" vertex="1">
          <mxGeometry x="-1060" y="-470" width="220" height="290" as="geometry" />
        </mxCell>
        <mxCell id="4Uusxk8nQV4cGoE9MiT4-1" value="&lt;h1 style=&quot;margin-top: 0px;&quot;&gt;Heading&lt;/h1&gt;&lt;p&gt;Lorem ipsum dolor sit amet, consectetur adipisicing elit, sed do eiusmod tempor incididunt ut labore et dolore magna aliqua.&lt;/p&gt;" style="text;html=1;whiteSpace=wrap;overflow=hidden;rounded=0;shadow=0;fontSize=7;" parent="1" vertex="1">
          <mxGeometry x="30" y="-479" width="330" height="269" as="geometry" />
        </mxCell>
        <mxCell id="4Uusxk8nQV4cGoE9MiT4-4" value="" style="whiteSpace=wrap;html=1;rounded=1;arcSize=5;shadow=0;labelBackgroundColor=none;fillColor=#09555B;strokeColor=#BAC8D3;fontColor=#EEEEEE;fontSize=7;" parent="1" vertex="1">
          <mxGeometry x="10" y="1210" width="370" height="290" as="geometry" />
        </mxCell>
        <mxCell id="4Uusxk8nQV4cGoE9MiT4-5" value="&lt;h1 style=&quot;margin-top: 0px;&quot;&gt;make_ui_L0(dispBuffL0):&lt;/h1&gt;&lt;p&gt;&lt;span style=&quot;white-space: pre;&quot;&gt;&#x9;&lt;/span&gt;put BG_COLOR in all the pixels of this layer.&lt;/p&gt;" style="text;html=1;whiteSpace=wrap;overflow=hidden;rounded=0;shadow=0;fontSize=7;" parent="1" vertex="1">
          <mxGeometry x="30" y="1221" width="330" height="269" as="geometry" />
        </mxCell>
        <mxCell id="4Uusxk8nQV4cGoE9MiT4-6" value="" style="whiteSpace=wrap;html=1;rounded=1;arcSize=5;shadow=0;labelBackgroundColor=none;fillColor=#09555B;strokeColor=#BAC8D3;fontColor=#EEEEEE;fontSize=7;" parent="1" vertex="1">
          <mxGeometry x="10" y="370" width="370" height="290" as="geometry" />
        </mxCell>
        <mxCell id="4Uusxk8nQV4cGoE9MiT4-7" value="&lt;h1 style=&quot;margin-top: 0px;&quot;&gt;Wave Reader Thread:&lt;/h1&gt;&lt;p&gt;&lt;span style=&quot;white-space: pre;&quot;&gt;&#x9;&lt;/span&gt;read the signal at current moment and also read current precise time.&lt;br&gt;&lt;/p&gt;&lt;p&gt;&lt;span style=&quot;white-space: pre;&quot;&gt;&#x9;&lt;/span&gt;push this (voltage, time) in the wave_data vector&lt;br&gt;&lt;/p&gt;" style="text;html=1;whiteSpace=wrap;overflow=hidden;rounded=0;shadow=0;fontSize=7;" parent="1" vertex="1">
          <mxGeometry x="30" y="381" width="330" height="59" as="geometry" />
        </mxCell>
        <mxCell id="4Uusxk8nQV4cGoE9MiT4-8" value="" style="whiteSpace=wrap;html=1;rounded=1;arcSize=5;shadow=0;labelBackgroundColor=none;fillColor=#09555B;strokeColor=#BAC8D3;fontColor=#EEEEEE;fontSize=7;" parent="1" vertex="1">
          <mxGeometry x="10" y="790" width="370" height="340" as="geometry" />
        </mxCell>
        <mxCell id="4Uusxk8nQV4cGoE9MiT4-14" value="" style="endArrow=classic;html=1;rounded=0;exitX=1;exitY=0.5;exitDx=0;exitDy=0;entryX=0;entryY=0.517;entryDx=0;entryDy=0;entryPerimeter=0;fontSize=7;" parent="1" source="CoY0uKXqRpmQlgdIEU-Q-17" target="4Uusxk8nQV4cGoE9MiT4-2" edge="1">
          <mxGeometry width="50" height="50" relative="1" as="geometry">
            <mxPoint x="50" y="-150" as="sourcePoint" />
            <mxPoint x="-10" y="-80" as="targetPoint" />
            <Array as="points">
              <mxPoint x="-40" y="-325" />
              <mxPoint x="-40" y="100" />
            </Array>
          </mxGeometry>
        </mxCell>
        <mxCell id="4Uusxk8nQV4cGoE9MiT4-15" value="" style="endArrow=classic;html=1;rounded=0;exitX=1;exitY=0.5;exitDx=0;exitDy=0;entryX=0;entryY=0.5;entryDx=0;entryDy=0;fontSize=7;" parent="1" source="CoY0uKXqRpmQlgdIEU-Q-17" target="4Uusxk8nQV4cGoE9MiT4-6" edge="1">
          <mxGeometry width="50" height="50" relative="1" as="geometry">
            <mxPoint x="-20" y="-120" as="sourcePoint" />
            <mxPoint x="30" y="-170" as="targetPoint" />
            <Array as="points">
              <mxPoint x="-40" y="-325" />
              <mxPoint x="-40" y="515" />
            </Array>
          </mxGeometry>
        </mxCell>
        <mxCell id="4Uusxk8nQV4cGoE9MiT4-16" value="" style="endArrow=classic;html=1;rounded=0;exitX=1;exitY=0.5;exitDx=0;exitDy=0;entryX=0;entryY=0.5;entryDx=0;entryDy=0;fontSize=7;" parent="1" source="CoY0uKXqRpmQlgdIEU-Q-17" target="4Uusxk8nQV4cGoE9MiT4-8" edge="1">
          <mxGeometry width="50" height="50" relative="1" as="geometry">
            <mxPoint x="-30" y="-180" as="sourcePoint" />
            <mxPoint x="20" y="-230" as="targetPoint" />
            <Array as="points">
              <mxPoint x="-40" y="-325" />
              <mxPoint x="-40" y="960" />
            </Array>
          </mxGeometry>
        </mxCell>
        <mxCell id="4Uusxk8nQV4cGoE9MiT4-17" value="" style="endArrow=classic;html=1;rounded=0;exitX=1;exitY=0.5;exitDx=0;exitDy=0;entryX=0;entryY=0.5;entryDx=0;entryDy=0;fontSize=7;" parent="1" source="CoY0uKXqRpmQlgdIEU-Q-17" target="4Uusxk8nQV4cGoE9MiT4-4" edge="1">
          <mxGeometry width="50" height="50" relative="1" as="geometry">
            <mxPoint x="-40" y="270" as="sourcePoint" />
            <mxPoint x="10" y="220" as="targetPoint" />
            <Array as="points">
              <mxPoint x="-40" y="-325" />
              <mxPoint x="-40" y="1355" />
            </Array>
          </mxGeometry>
        </mxCell>
        <mxCell id="4Uusxk8nQV4cGoE9MiT4-23" value="" style="whiteSpace=wrap;html=1;rounded=1;arcSize=5;shadow=0;labelBackgroundColor=none;fillColor=#09555B;strokeColor=#BAC8D3;fontColor=#EEEEEE;fontSize=7;" parent="1" vertex="1">
          <mxGeometry x="-552" y="-50" width="370" height="290" as="geometry" />
        </mxCell>
        <mxCell id="4Uusxk8nQV4cGoE9MiT4-25" value="Constant Library" style="text;html=1;align=center;verticalAlign=middle;whiteSpace=wrap;rounded=0;" parent="1" vertex="1">
          <mxGeometry x="-422" y="-80" width="110" height="30" as="geometry" />
        </mxCell>
        <mxCell id="4Uusxk8nQV4cGoE9MiT4-27" value="" style="whiteSpace=wrap;html=1;rounded=1;arcSize=5;shadow=0;labelBackgroundColor=none;fillColor=#09555B;strokeColor=#BAC8D3;fontColor=#EEEEEE;fontSize=7;" parent="1" vertex="1">
          <mxGeometry x="-552" y="330" width="370" height="290" as="geometry" />
        </mxCell>
        <mxCell id="4Uusxk8nQV4cGoE9MiT4-29" value="Graphics Library" style="text;html=1;align=center;verticalAlign=middle;whiteSpace=wrap;rounded=0;" parent="1" vertex="1">
          <mxGeometry x="-422" y="300" width="110" height="30" as="geometry" />
        </mxCell>
        <mxCell id="4Uusxk8nQV4cGoE9MiT4-30" value="" style="whiteSpace=wrap;html=1;rounded=1;arcSize=5;shadow=0;labelBackgroundColor=none;fillColor=#09555B;strokeColor=#BAC8D3;fontColor=#EEEEEE;fontSize=7;" parent="1" vertex="1">
          <mxGeometry x="-550" y="726" width="370" height="290" as="geometry" />
        </mxCell>
        <mxCell id="4Uusxk8nQV4cGoE9MiT4-32" value="Font Type Library" style="text;html=1;align=center;verticalAlign=middle;whiteSpace=wrap;rounded=0;" parent="1" vertex="1">
          <mxGeometry x="-420" y="696" width="110" height="30" as="geometry" />
        </mxCell>
        <mxCell id="x_DFqZ_SWYjDULnQ6Q-3-1" value="&lt;font style=&quot;font-size: 12px;&quot;&gt;L0_background&lt;/font&gt;" style="text;html=1;align=center;verticalAlign=middle;whiteSpace=wrap;rounded=0;fontSize=7;" parent="1" vertex="1">
          <mxGeometry x="141.25" y="1180" width="105" height="30" as="geometry" />
        </mxCell>
        <mxCell id="x_DFqZ_SWYjDULnQ6Q-3-2" value="&lt;font style=&quot;font-size: 12px;&quot;&gt;L1_graphing&lt;/font&gt;" style="text;html=1;align=center;verticalAlign=middle;whiteSpace=wrap;rounded=0;fontSize=7;" parent="1" vertex="1">
          <mxGeometry x="141.25" y="760" width="105" height="30" as="geometry" />
        </mxCell>
        <mxCell id="x_DFqZ_SWYjDULnQ6Q-3-3" value="&lt;font style=&quot;font-size: 12px;&quot;&gt;L2_wave&lt;/font&gt;" style="text;html=1;align=center;verticalAlign=middle;whiteSpace=wrap;rounded=0;fontSize=7;" parent="1" vertex="1">
          <mxGeometry x="133.75" y="340" width="105" height="30" as="geometry" />
        </mxCell>
        <mxCell id="x_DFqZ_SWYjDULnQ6Q-3-4" value="&lt;font style=&quot;font-size: 12px;&quot;&gt;L3_annotations&lt;/font&gt;" style="text;html=1;align=center;verticalAlign=middle;whiteSpace=wrap;rounded=0;fontSize=7;" parent="1" vertex="1">
          <mxGeometry x="133.75" y="-80" width="105" height="30" as="geometry" />
        </mxCell>
        <mxCell id="x_DFqZ_SWYjDULnQ6Q-3-5" value="&lt;font style=&quot;font-size: 12px;&quot;&gt;L4_sidepanel&lt;/font&gt;" style="text;html=1;align=center;verticalAlign=middle;whiteSpace=wrap;rounded=0;fontSize=7;" parent="1" vertex="1">
          <mxGeometry x="133.75" y="-520" width="105" height="30" as="geometry" />
        </mxCell>
        <mxCell id="x_DFqZ_SWYjDULnQ6Q-3-10" value="&lt;h1 style=&quot;margin-top: 0px;&quot;&gt;safe_pixel_color()&lt;/h1&gt;&lt;p&gt;use the constants defined for coordination and check if the pixel index is inside the floor range, otherwise throw error.&lt;/p&gt;" style="text;html=1;whiteSpace=wrap;overflow=hidden;rounded=0;fontSize=7;" parent="1" vertex="1">
          <mxGeometry x="-537" y="342" width="340" height="58" as="geometry" />
        </mxCell>
        <mxCell id="x_DFqZ_SWYjDULnQ6Q-3-11" value="&lt;h1 style=&quot;margin-top: 0px;&quot;&gt;colors&lt;/h1&gt;&lt;p&gt;use the constants defined for coordination and check if the pixel index is inside the allowed frame range, otherwise throw error.&lt;/p&gt;" style="text;html=1;whiteSpace=wrap;overflow=hidden;rounded=0;fontSize=7;" parent="1" vertex="1">
          <mxGeometry x="-537" y="-39" width="340" height="58" as="geometry" />
        </mxCell>
        <mxCell id="x_DFqZ_SWYjDULnQ6Q-3-12" value="&lt;h1 style=&quot;margin-top: 0px;&quot;&gt;screen sections&lt;/h1&gt;&lt;p&gt;use the constants defined for coordination and check if the pixel index is inside the allowed frame range, otherwise throw error.&lt;/p&gt;" style="text;html=1;whiteSpace=wrap;overflow=hidden;rounded=0;fontSize=7;" parent="1" vertex="1">
          <mxGeometry x="-537" y="30" width="340" height="58" as="geometry" />
        </mxCell>
        <mxCell id="x_DFqZ_SWYjDULnQ6Q-3-13" value="&lt;h1 style=&quot;margin-top: 0px;&quot;&gt;local variables and constants&lt;/h1&gt;&lt;h1 style=&quot;margin-top: 0px;&quot;&gt;make_ui_L1(dispBuffL1):&lt;/h1&gt;&lt;p&gt;&lt;span style=&quot;white-space: pre;&quot;&gt;&#x9;&lt;/span&gt;calculate and print graph from private and global data&lt;br&gt;&lt;/p&gt;&lt;p&gt;&lt;span style=&quot;white-space: pre;&quot;&gt;&#x9;&lt;/span&gt;calculate and print axis from private and global data&lt;br&gt;&lt;/p&gt;&lt;p&gt;&lt;span style=&quot;white-space: pre;&quot;&gt;&#x9;&lt;/span&gt;&lt;span style=&quot;background-color: transparent; color: light-dark(rgb(0, 0, 0), rgb(255, 255, 255));&quot;&gt;calculate and print axis marking from private and global data&lt;/span&gt;&lt;/p&gt;&lt;p&gt;&lt;span style=&quot;background-color: transparent; color: light-dark(rgb(0, 0, 0), rgb(255, 255, 255));&quot;&gt;&lt;span style=&quot;white-space: pre;&quot;&gt;&#x9;&lt;/span&gt;&lt;/span&gt;&lt;span style=&quot;background-color: transparent; color: light-dark(rgb(0, 0, 0), rgb(255, 255, 255));&quot;&gt;calculate and print frame border from private and global data&lt;/span&gt;&lt;/p&gt;&lt;p&gt;&lt;span style=&quot;background-color: transparent; color: light-dark(rgb(0, 0, 0), rgb(255, 255, 255));&quot;&gt;&lt;span style=&quot;white-space: pre;&quot;&gt;&#x9;&lt;/span&gt;&lt;/span&gt;&lt;span style=&quot;background-color: transparent; color: light-dark(rgb(0, 0, 0), rgb(255, 255, 255));&quot;&gt;calculate and print frame border marking from private and global data&lt;/span&gt;&lt;/p&gt;&lt;p&gt;&lt;span style=&quot;background-color: transparent; color: light-dark(rgb(0, 0, 0), rgb(255, 255, 255));&quot;&gt;** must use the safe_pixel_color() to write inside dispBuffL1&lt;/span&gt;&lt;/p&gt;" style="text;html=1;whiteSpace=wrap;overflow=hidden;rounded=0;shadow=0;fontSize=7;" parent="1" vertex="1">
          <mxGeometry x="27" y="800" width="330" height="160" as="geometry" />
        </mxCell>
        <mxCell id="x_DFqZ_SWYjDULnQ6Q-3-14" value="&lt;h1 style=&quot;margin-top: 0px;&quot;&gt;local variables and constants&lt;/h1&gt;&lt;h1 style=&quot;margin-top: 0px;&quot;&gt;make_ui_L2(dispBuffL2):&lt;/h1&gt;&lt;p&gt;&lt;span style=&quot;white-space: pre;&quot;&gt;&#x9;&lt;/span&gt;calculate and print wave from private and global data&lt;/p&gt;&lt;p&gt;** must use the safe_pixel_color() to write inside dispBuffL2&lt;/p&gt;" style="text;html=1;whiteSpace=wrap;overflow=hidden;rounded=0;shadow=0;fontSize=7;" parent="1" vertex="1">
          <mxGeometry x="27" y="460" width="330" height="140" as="geometry" />
        </mxCell>
        <mxCell id="x_DFqZ_SWYjDULnQ6Q-3-15" value="&lt;h1 style=&quot;margin-top: 0px;&quot;&gt;local variables and constants&lt;/h1&gt;&lt;div&gt;upper_tray_origin&lt;/div&gt;&lt;div&gt;lower_tray_origin&lt;/div&gt;&lt;div&gt;&lt;br&gt;&lt;/div&gt;&lt;div&gt;** upper and lower two portion of the status tray, every part is relatively positioned**&lt;/div&gt;&lt;div&gt;&lt;br&gt;&lt;/div&gt;&lt;h1 style=&quot;margin-top: 0px;&quot;&gt;walkVertical(&amp;amp;origin):&lt;/h1&gt;&lt;div&gt;&lt;span style=&quot;white-space: pre;&quot;&gt;&#x9;&lt;/span&gt;&lt;br&gt;&lt;/div&gt;&lt;div&gt;&lt;br&gt;&lt;/div&gt;&lt;h1 style=&quot;margin-top: 0px;&quot;&gt;walkHorizontal():&lt;/h1&gt;&lt;div&gt;&lt;br&gt;&lt;/div&gt;&lt;div&gt;&lt;br&gt;&lt;/div&gt;&lt;h1 style=&quot;margin-top: 0px;&quot;&gt;make_ui_L3(dispBuffL3):&lt;/h1&gt;&lt;p&gt;&lt;span style=&quot;white-space: pre;&quot;&gt;&#x9;&lt;/span&gt;calculate and print wave from private and global data&lt;/p&gt;&lt;p&gt;** must use the safe_pixel_color() to write inside dispBuffL3&lt;/p&gt;" style="text;html=1;whiteSpace=wrap;overflow=hidden;rounded=0;shadow=0;fontSize=7;" parent="1" vertex="1">
          <mxGeometry x="27" y="-39" width="330" height="259" as="geometry" />
        </mxCell>
        <mxCell id="HlpkgcP61pGtncHFr5WV-1" value="master.cpp" style="text;html=1;align=center;verticalAlign=middle;whiteSpace=wrap;rounded=0;" parent="1" vertex="1">
          <mxGeometry x="-395" y="-520" width="60" height="30" as="geometry" />
        </mxCell>
        <mxCell id="HlpkgcP61pGtncHFr5WV-6" value="" style="endArrow=classic;html=1;rounded=0;exitX=0;exitY=0.5;exitDx=0;exitDy=0;entryX=0;entryY=0.5;entryDx=0;entryDy=0;" parent="1" source="HlpkgcP61pGtncHFr5WV-7" target="CoY0uKXqRpmQlgdIEU-Q-17" edge="1">
          <mxGeometry width="50" height="50" relative="1" as="geometry">
            <mxPoint x="-515" y="-660" as="sourcePoint" />
            <mxPoint x="-320" y="-640" as="targetPoint" />
            <Array as="points">
              <mxPoint x="-680" y="-660" />
              <mxPoint x="-680" y="-325" />
            </Array>
          </mxGeometry>
        </mxCell>
        <mxCell id="HlpkgcP61pGtncHFr5WV-7" value="" style="rounded=1;whiteSpace=wrap;html=1;strokeColor=#BAC8D3;arcSize=5;shadow=1;labelBackgroundColor=none;fillColor=#09555B;fontColor=#EEEEEE;fontSize=7;" parent="1" vertex="1">
          <mxGeometry x="-485" y="-735" width="240" height="150" as="geometry" />
        </mxCell>
        <mxCell id="HlpkgcP61pGtncHFr5WV-8" value="main.cpp" style="text;html=1;align=center;verticalAlign=middle;whiteSpace=wrap;rounded=0;" parent="1" vertex="1">
          <mxGeometry x="-395" y="-765" width="60" height="30" as="geometry" />
        </mxCell>
        <mxCell id="HlpkgcP61pGtncHFr5WV-9" value="&lt;h1 style=&quot;margin-top: 0px;&quot;&gt;&lt;font style=&quot;font-size: 13px;&quot;&gt;Define the necessary win32 codes and trigger the mainThread logic inside winMain&lt;/font&gt;&lt;/h1&gt;" style="text;html=1;whiteSpace=wrap;overflow=hidden;rounded=0;align=center;" parent="1" vertex="1">
          <mxGeometry x="-455" y="-727" width="180" height="120" as="geometry" />
        </mxCell>
        <mxCell id="qPpU3Tpyx-AcaDkKgEL6-2" value="" style="rounded=0;whiteSpace=wrap;html=1;labelBackgroundColor=none;fillColor=#09555B;strokeColor=#BAC8D3;fontColor=#EEEEEE;fontSize=7;" parent="1" vertex="1">
          <mxGeometry x="-1080" y="-170" width="260" height="310" as="geometry" />
        </mxCell>
        <mxCell id="qPpU3Tpyx-AcaDkKgEL6-3" value="&lt;h1 style=&quot;margin-top: 0px;&quot;&gt;Global Constants in library&lt;/h1&gt;" style="text;html=1;whiteSpace=wrap;overflow=hidden;rounded=0;labelBackgroundColor=none;fontColor=#EEEEEE;fontSize=7;" parent="1" vertex="1">
          <mxGeometry x="-1060" y="-160" width="220" height="290" as="geometry" />
        </mxCell>
        <mxCell id="qPpU3Tpyx-AcaDkKgEL6-4" value="" style="rounded=0;whiteSpace=wrap;html=1;labelBackgroundColor=none;fillColor=#09555B;strokeColor=#BAC8D3;fontColor=#EEEEEE;fontSize=7;" parent="1" vertex="1">
          <mxGeometry x="-1080" y="140" width="260" height="310" as="geometry" />
        </mxCell>
        <mxCell id="qPpU3Tpyx-AcaDkKgEL6-5" value="&lt;h1 style=&quot;margin-top: 0px;&quot;&gt;Local filewise vars &amp;amp; consts&lt;/h1&gt;&lt;h1 style=&quot;margin-top: 0px;&quot;&gt;&lt;p style=&quot;font-weight: 400;&quot;&gt;1. wave_data (L2_wave)&lt;/p&gt;&lt;p style=&quot;font-weight: 400;&quot;&gt;2.&amp;nbsp;&lt;/p&gt;&lt;/h1&gt;" style="text;html=1;whiteSpace=wrap;overflow=hidden;rounded=0;labelBackgroundColor=none;fontColor=#EEEEEE;fontSize=7;" parent="1" vertex="1">
          <mxGeometry x="-1060" y="150" width="220" height="290" as="geometry" />
        </mxCell>
        <mxCell id="qPpU3Tpyx-AcaDkKgEL6-6" value="&lt;font style=&quot;font-size: 20px;&quot;&gt;All Data&lt;/font&gt;" style="text;html=1;align=center;verticalAlign=middle;resizable=0;points=[];autosize=1;strokeColor=none;fillColor=none;" parent="1" vertex="1">
          <mxGeometry x="-1000" y="-520" width="90" height="40" as="geometry" />
        </mxCell>
      </root>
    </mxGraphModel>
  </diagram>
</mxfile>
